<svg version="1.1" xmlns="http://www.w3.org/2000/svg" xmlns:xlink="http://www.w3.org/1999/xlink" role="img" width="222" height="90" viewbox="0 0 222 90"><title>ZLOGO</title><desc>Generated by logo.svg, https://github.com/bubkoo/logo.svg</desc><path fill="#2b68a7" d="M-0.09 70.35L0.42 67.79L32.62 27.86L17.70 27.86Q14.82 27.86 13.42 29.42Q12.01 30.99 11.30 33.10L10.41 35.86L7.08 35.86L9.77 24.66L41.38 24.66L40.87 27.28L8.62 67.15L25.70 67.15Q28.65 67.15 30.06 65.58Q31.46 64.02 32.17 61.90L33.06 59.15L36.39 59.15L33.70 70.35L-0.09 70.35ZM38.44 70.35L39.02 67.66L39.85 67.66Q41.96 67.66 43.66 66.86Q45.35 66.06 45.99 63.06L52.65 31.70Q52.90 30.67 52.90 29.90Q52.90 28.24 51.62 27.79Q50.34 27.34 48.30 27.34L47.46 27.34L48.04 24.66L66.66 24.66L66.09 27.34L65.26 27.34Q63.14 27.34 61.45 28.08Q59.75 28.82 59.11 31.70L51.56 67.15L64.17 67.15Q67.11 67.15 68.71 65.30Q70.31 63.44 71.02 61.39L72.68 56.59L76.01 56.59L72.68 70.35L38.44 70.35ZM99.69 71.06Q94.95 71.06 91.14 69.04Q87.34 67.02 85.13 63.06Q82.92 59.09 82.92 53.33Q82.92 49.62 83.94 45.58Q84.97 41.55 87.05 37.71Q89.13 33.87 92.20 30.77Q95.27 27.66 99.34 25.81Q103.40 23.95 108.52 23.95Q112.94 23.95 116.71 25.81Q120.49 27.66 122.79 31.54Q125.10 35.41 125.10 41.55Q125.10 45.07 124.10 49.10Q123.11 53.14 121.10 57.01Q119.08 60.88 116.04 64.08Q113 67.28 108.90 69.17Q104.81 71.06 99.69 71.06M100.07 67.54Q103.78 67.54 106.70 65.68Q109.61 63.82 111.75 60.78Q113.90 57.74 115.30 54.06Q116.71 50.38 117.38 46.67Q118.06 42.96 118.06 39.82Q118.06 33.36 115.21 30.38Q112.36 27.41 108.01 27.41Q104.30 27.41 101.35 29.26Q98.41 31.12 96.26 34.16Q94.12 37.20 92.71 40.88Q91.30 44.56 90.60 48.27Q89.90 51.98 89.90 55.12Q89.90 59.47 91.24 62.22Q92.58 64.98 94.92 66.26Q97.26 67.54 100.07 67.54ZM148.58 70.99Q139.56 70.99 134.98 66.38Q130.41 61.78 130.41 53.84Q130.41 47.63 132.39 42.22Q134.38 36.82 138.02 32.72Q141.67 28.62 146.73 26.32Q151.78 24.02 157.93 24.02Q164.71 24.02 168.07 26.06Q171.43 28.11 171.43 30.93Q171.43 33.42 169.42 34.70Q167.40 35.98 164.65 35.98Q164.65 32.21 162.73 29.81Q160.81 27.41 156.58 27.41Q152.49 27.41 149 29.65Q145.51 31.89 142.89 35.73Q140.26 39.57 138.82 44.50Q137.38 49.42 137.38 54.86Q137.38 60.37 140.23 63.86Q143.08 67.34 149.74 67.34Q151.53 67.34 153.51 67.09Q155.50 66.83 156.97 66.45L159.08 56.27Q159.34 55.25 159.34 54.48Q159.34 52.82 157.96 52.37Q156.58 51.92 154.73 51.92L154.15 51.92L154.73 49.23L171.75 49.23L171.18 51.92L170.92 51.92Q169.13 51.92 167.62 52.72Q166.12 53.52 165.48 56.53L163.05 68.05Q159.53 69.52 156.10 70.26Q152.68 70.99 148.58 70.99ZM192.87 71.06Q188.14 71.06 184.33 69.04Q180.52 67.02 178.31 63.06Q176.10 59.09 176.10 53.33Q176.10 49.62 177.13 45.58Q178.15 41.55 180.23 37.71Q182.31 33.87 185.38 30.77Q188.46 27.66 192.52 25.81Q196.58 23.95 201.70 23.95Q206.12 23.95 209.90 25.81Q213.67 27.66 215.98 31.54Q218.28 35.41 218.28 41.55Q218.28 45.07 217.29 49.10Q216.30 53.14 214.28 57.01Q212.26 60.88 209.22 64.08Q206.18 67.28 202.09 69.17Q197.99 71.06 192.87 71.06M193.26 67.54Q196.97 67.54 199.88 65.68Q202.79 63.82 204.94 60.78Q207.08 57.74 208.49 54.06Q209.90 50.38 210.57 46.67Q211.24 42.96 211.24 39.82Q211.24 33.36 208.39 30.38Q205.54 27.41 201.19 27.41Q197.48 27.41 194.54 29.26Q191.59 31.12 189.45 34.16Q187.30 37.20 185.90 40.88Q184.49 44.56 183.78 48.27Q183.08 51.98 183.08 55.12Q183.08 59.47 184.42 62.22Q185.77 64.98 188.10 66.26Q190.44 67.54 193.26 67.54Z"></path></svg>