<svg version="1.1" xmlns="http://www.w3.org/2000/svg" xmlns:xlink="http://www.w3.org/1999/xlink" role="img" width="2122" height="746" viewbox="0 0 2122 746"><title>zlogo</title><desc>Generated by logo.svg, https://github.com/bubkoo/logo.svg</desc><path fill="#ad13dc" d="M421 550L421 454L293 454L293 422L421 422L421 198L133 198L133 294L261 294L261 326L133 326L133 550L421 550M101 582L101 166L453 166L453 582L101 582ZM805 550L805 454L645 454L645 198L517 198L517 550L805 550M485 582L485 166L677 166L677 422L837 422L837 582L485 582ZM1029 454L1029 294L1061 294L1061 454L1029 454M1189 550L1189 198L901 198L901 550L1189 550M869 582L869 166L1221 166L1221 582L869 582ZM1573 550L1573 390L1445 390L1445 454L1477 454L1477 486L1413 486L1413 294L1445 294L1445 358L1573 358L1573 198L1285 198L1285 550L1573 550M1253 582L1253 166L1605 166L1605 582L1253 582ZM1797 454L1797 294L1829 294L1829 454L1797 454M1957 550L1957 198L1669 198L1669 550L1957 550M1637 582L1637 166L1989 166L1989 582L1637 582Z"></path></svg>